<svg width="80" height="80" viewBox="0 0 80 80" fill="none" xmlns="http://www.w3.org/2000/svg">
<rect x="21.2198" y="20.2218" width="6" height="47" rx="1" transform="rotate(-33 21.2198 20.2218)" fill="#C6B6CE"/>
<path d="M43.1609 52.2248C43.9893 53.6597 43.4977 55.4945 42.0628 56.3229C40.628 57.1513 38.7932 56.6597 37.9648 55.2248C37.1363 53.79 37.628 51.9552 39.0628 51.1268C40.4977 50.2983 42.3325 50.79 43.1609 52.2248Z" fill="#5694FF"/>
<path d="M56.3212 55.0191C57.1496 56.4539 56.658 58.2887 55.2231 59.1171C53.7882 59.9456 51.9534 59.4539 51.125 58.0191C50.2966 56.5842 50.7882 54.7494 52.2231 53.921C53.658 53.0926 55.4927 53.5842 56.3212 55.0191Z" fill="#5694FF"/>
<path d="M51.4372 44.5598C52.4037 46.2338 51.8301 48.3744 50.1561 49.3409C48.4821 50.3074 46.3415 49.7338 45.375 48.0598C44.4085 46.3858 44.9821 44.2452 46.6561 43.2787C48.3301 42.3122 50.4707 42.8858 51.4372 44.5598Z" fill="#5694FF"/>
<path d="M47.143 55.122C47.5572 55.8394 47.3114 56.7568 46.5939 57.171C45.8765 57.5852 44.9591 57.3394 44.5449 56.622C44.1307 55.9045 44.3765 54.9871 45.0939 54.5729C45.8114 54.1587 46.7287 54.4045 47.143 55.122Z" fill="#5694FF"/>
<path d="M46.7949 60.5191C47.3472 61.4757 47.0194 62.6988 46.0628 63.2511C45.1063 63.8034 43.8831 63.4757 43.3308 62.5191C42.7785 61.5625 43.1063 60.3393 44.0628 59.787C45.0194 59.2347 46.2426 59.5625 46.7949 60.5191Z" fill="#5694FF"/>
<path d="M52.7051 50.7559C53.1194 51.4734 52.8735 52.3908 52.1561 52.805C51.4387 53.2192 50.5213 52.9734 50.1071 52.2559C49.6929 51.5385 49.9387 50.6211 50.6561 50.2069C51.3735 49.7927 52.2909 50.0385 52.7051 50.7559Z" fill="#5694FF"/>
<path d="M43.2818 65.4341L26.2507 42.9354C26.2507 42.9354 31.6119 35.2214 35.942 32.7213L48.4994 25.4713L58.5042 57.8002L43.2818 65.4341Z" fill="#A6E5FC" fill-opacity="0.5" stroke="#100B50"/>
<path d="M26.5151 43.3602C26.5151 43.3602 18.4261 31.3484 29.3881 23.3513C40.3501 15.3541 48.8231 26.0321 48.8231 26.0321" stroke="#100B50"/>
<path d="M42.2853 22.7082C42.2183 21.5922 32.424 22.6281 32.058 23.9941C31.692 25.3601 35.2901 25.5922 36.6561 25.9582C38.0221 26.3242 42.3522 23.8242 42.2853 22.7082Z" fill="#A6E5FC" fill-opacity="0.5"/>
</svg>
